<?xml version="1.0" encoding="UTF-8"?>
<svg xmlns="http://www.w3.org/2000/svg" version="1.1" viewBox="0 0 476.8197 596.8692">
  <defs>
    <style>
      .cls-1 {
        fill: #8b73a6;
      }

      .cls-2 {
        fill: #42273d;
      }

      .cls-3 {
        fill: #e4e4e4;
      }

      .cls-4 {
        fill: #854d7e;
      }

      .cls-5 {
        fill: #dadbdb;
      }

      .cls-6 {
        fill: #fff;
      }

      .cls-7 {
        fill: #7a4371;
      }

      .cls-8 {
        fill: #577a88;
      }

      .cls-9 {
        fill: #42213d;
      }

      .cls-10 {
        fill: #6d6f85;
      }

      .cls-11 {
        fill: #474857;
      }

      .cls-12 {
        fill: #705394;
      }

      .cls-13 {
        fill: #ac93c9;
      }

      .cls-14 {
        fill: #c5454f;
      }

      .cls-15 {
        fill: #61325a;
      }

      .cls-16 {
        fill: #db90bd;
      }

      .cls-17 {
        fill: #a65887;
      }

      .cls-18 {
        fill: #2a4569;
      }

      .cls-19 {
        fill: #366199;
      }

      .cls-20 {
        fill: #1a1a1a;
      }

      .cls-21 {
        fill: #29212d;
      }
    </style>
  </defs>
  <!-- Generator: Adobe Illustrator 28.6.0, SVG Export Plug-In . SVG Version: 1.2.0 Build 709)  -->
  <g>
    <g id="Layer_2">
      <g>
        <path class="cls-15" d="M318.6057,168.3107s-15.328,81.5173,15.328,102.4192c0,0-21.5986-3.4836-25.779-20.9019,0,0,3.4836,18.115-11.1477,38.3201l-12.5411,1.3935s16.0248-25.779,6.9673-49.4678c-5.9146-15.4689-9.7542-55.7383-9.7542-55.7383l10.0928-18.8385,26.8339,2.8138Z"/>
        <path class="cls-15" d="M305.3679,179.4584s-6.2706,89.878-29.2626,108.6897c0,0-85.0645-5.549-144.9196-27.8692-1.829-.6821,15.328-11.1477,23.6888-32.7463-16.8739,19.569-28.452,29.837-31.6513,28.7122-11.3037-3.9737-20.8478-10.4601-28.9642-16.8678,0,0,25.0822-1.3935,38.3201-16.0248,21.2577-23.4954,34.1494-69.4779,32.5596-104.4463l140.2292,60.5523Z"/>
        <path class="cls-15" d="M89.3819,227.5327s34.1397-4.1804,56.435-48.0743c18.6821-36.7803,18.8117-75.9435,18.8117-75.9435,0,0,25.931,31.6817,20.9019,46.6808-5.0291,14.9992-36.9266,80.1238-96.1486,77.3369Z"/>
        <g>
          <path class="cls-13" d="M250.0111,209.8474s12.7584,0,30.9848-1.5623c18.2263-1.5623,81.2374-11.1962,100.5052-15.8829,19.2678-4.6868,20.5697-4.9471,20.5697-4.9471,0,0,2.8641-18.2263,9.8943-27.8603,7.0302-9.6339,11.9773-10.9358,13.0188-10.415,1.0415.5208-4.6868,21.0905-11.4566,27.0791,0,0,29.1621-8.5924,43.7432-6.7698,14.5811,1.8226,17.966,6.5094,4.166,7.2905-13.7999.7811-33.5885,2.8641-33.5885,2.8641,0,0,25.2565,2.083,34.3697,5.4679,9.1132,3.3849,23.4339,10.9358,7.2905,9.8943-16.1433-1.0415-36.4527-6.5094-36.4527-6.5094,0,0,27.5999,16.4037,29.1621,24.215,1.5623,7.8113-39.5772-18.7471-39.5772-18.7471,0,0-11.7169,4.6868-15.1018,3.1245-3.3849-1.5623-5.2075-2.6038-5.2075-2.6038,0,0-90.3505,31.5055-147.3729,33.8489l-4.9471-18.4867Z"/>
          <path class="cls-19" d="M277.7965,208.5477c-18.5123-1.1366-29.7952-2.7778-29.7952-2.7778l6.9017,24.5094c11.4201-6.2141,18.399-16.4289,22.8935-21.7316Z"/>
          <path class="cls-14" d="M280.9959,208.285c-1.0874.0934-2.1525.1801-3.1994.2627-4.4945,5.3027-12.0417,15.8647-23.4618,22.0789,0,0,25.383-3.5329,40.471-7.192,5.3667-6.6756,9.4526-13.3844,12.1727-18.3671-11.0802,1.5609-20.537,2.7507-25.9826,3.2176Z"/>
          <path class="cls-3" d="M306.9784,205.0674c-2.7202,4.9828-6.806,11.6915-12.1727,18.3671,15.6544-2.8688,31.684-6.6551,46.4492-10.5469,1.5642-4.5364,2.4512-9.498,2.9507-13.5109-12.4143,2.0411-25.6968,4.0665-37.2272,5.6906Z"/>
        </g>
        <path class="cls-7" d="M170.2025,320.8944c-26.9402-1.6257-36.2299,22.2953-60.6154,4.1804,0,0,3.1334,17.0392,15.7325,26.3441,0,0-14.0659-.3703-19.4378-3.5027,0,0,11.3693,32.6647,42.2161,27.1513,0,0-10.8295,9.7306-7.2113,19.3269,0,0,12.7904-11.3357,29.7804-5.9172,29.7826,9.4983,62.0564-20.4564,62.0564-20.4564,0,0-14.2569-44.2138-62.5209-47.1263Z"/>
        <path class="cls-16" d="M168.6978,127.8983s-29.1304-4.5132-56.2093-22.5658c-27.0789-18.0526-24.6172-28.7201-8.616-27.8995,16.0012.8206,50.4653,10.6675,61.1328,15.5909,10.6675,4.9234,27.0789,18.4629,27.0789,18.4629l-1.2309,20.9246-22.1555-4.5132Z"/>
        <path class="cls-17" d="M114.1296,87.2799s13.5395,19.2835,34.0538,25.8481"/>
        <path class="cls-17" d="M181.8315,107.1817c-6.3364-1.069-13.5627-1.8993-19.7256.1884-1.5143.8063-.5599,2.7078-.4695,4.0425.0606,1.1372.1067,2.3279-.2082,3.7234,0,0-.2312.0867-.2312.0867-1.6371-1.3918-2.4481-3.3754-2.0953-5.4507.1162-1.4485.8744-3.218,2.3925-3.7258,4.2162-1.4647,8.7915-.9631,13.1244-.54,2.4575.307,4.8909.7797,7.2703,1.4355,0,0-.0574.24-.0574.24h0Z"/>
        <path class="cls-1" d="M224.5172,159.5558s-.5742,26.7018-5.7423,43.9287l6.3165,14.93,4.5939,14.0687,15.2171.8613,3.4454-15.5043s-2.8712-14.93-3.4454-25.5533c-.5742-10.6233-.2871-25.8404-.2871-25.8404l-20.0981-6.8908Z"/>
        <path class="cls-10" d="M181.4167,561.9819l-4.1029,32.4127s20.5143,4.9234,32.0024,0l-.4103-37.7464s-23.7966-1.2309-27.4892,5.3337Z"/>
        <path class="cls-10" d="M274.9621,564.0332c.6924,10.7439,1.7413,20.5323,3.6925,27.8995,0,0,23.3864,4.9236,33.6436.8207l-11.0777-39.7978-26.2583,11.0776Z"/>
        <path class="cls-16" d="M381.3203,109.7315s16.8956-2.1997,15.3814,7.0285c-1.7589,10.7196-22.308,20.9838-45.7366,24.549l-.4074-26.6881c10.7046-3.2236,21.046-5.1635,30.7626-4.8894Z"/>
        <path class="cls-17" d="M380.8161,116.4102c-.279,7.4287-6.2598,14.0628-13.33,15.9253-1.0093.2656-2.0557.3967-3.0814.4863.8662-.6147,1.7715-1.0405,2.6047-1.6003,5.9423-3.5687,10.5269-8.6939,13.8066-14.8113h0Z"/>
        <path class="cls-13" d="M350.0446,111.0765s17.0149-6.9476,36.9801-1.5488c0,0-24.2612,1.9591-35.3389,11.806l-1.6411-10.2572Z"/>
        <path class="cls-13" d="M338.7122,56.0084s-18.0593-23.0757-63.2074-30.6004c-45.1482-7.5247-73.742,4.5148-73.742,4.5148l-16.0527,70.7321s-35.1407-21.408-65.0158-23.2219c-20.6818-1.2557-23.274.1462-23.274.1462,0,0,63.9578,10.7919,81.1244,27.9585,1.8463,1.8463-3.0772,3.4874-5.3337,4.9234-2.2566,1.436-3.0772,4.1029-.2051,5.744s7.3852,2.6669,6.7697,4.7183c-.6154,2.0514-9.9432,6.7947-9.9432,6.7947,0,0,7.8442,2.8762,12.8123,2.8762,0,0,17.3113,17.4718,28.3127,23.9726,19.4403,11.4874,80.4065,31.1635,87.8014,30.7715,7.3949-.3919,32.0024-12.3086,45.1316-28.3098,13.1292-16.0012,12.2095-58.4401-5.1781-101.0203Z"/>
        <path class="cls-7" d="M338.7122,56.0084s-35.2381,5.928-107.8784-23.3578c0,0,.2871,43.3545-27.276,59.7201,0,0-.2871,13.7816,1.7227,23.5435l-19.5704-15.259c-7.4615-4.3827-15.939-8.4552-24.7677-12.4199,0,0,7.5873-51.8522,24.8143-72.5246,17.227-20.6723,50.5324-16.9398,75.2244-11.1975,24.692,5.7423,45.9385,18.6625,54.552,24.4049,8.6135,5.7423,21.9536,20.5881,23.1792,27.0903Z"/>
        <path class="cls-7" d="M204.5744,362.0014s-21.326,181.9491-23.1577,197.5188c-.8206,6.9749-1.6411,13.2659-1.6411,13.2659l6.1543-9.9836s3.2823,15.1806,4.5132,14.36c1.2309-.8206,6.1543-9.8469,6.1543-9.8469,0,0,5.3337,9.8469,6.9749,7.3852,1.6411-2.4617,5.7441-12.7189,5.7441-12.7189-1.2641-43.2713,7.6622-144.7189,10.0286-198.3395l-14.7704-1.641Z"/>
        <path class="cls-7" d="M245.4492,363.8593l25.8203,178.8391,3.6926,30.6348,8.2057-8.8896s4.1029,7.3852,7.3852,9.4366l3.2823-11.0777s6.5646,10.6675,7.7955,10.6675c1.2309,0,2.872-7.7955,2.872-7.7955l-45.8157-200.1894-13.2379-1.6257Z"/>
        <path class="cls-3" d="M249.5399,207.411c-1.0106,1.394-6.9313,8.1698-7.9477,11.9809-1.094,4.1026-4.6499,11.4885-4.6499,11.4885l-3.0087-21.3347-19.9672-7.3859c-.5988.2542-1.1922.5079-1.7895.7621,0,0-4.0187,39.3305-4.4572,50.7274-.4673,12.1452-1.3598,27.1141-3.0531,37.1328-3.2824,19.4202-7.8639,35.6957-7.8639,35.6957,0,0,51.9013,8.6149,71.3216,2.3242,0,0-10.2187-42.5552-12.1242-74.9736-.3985-6.7803-6.46-46.4173-6.46-46.4173Z"/>
        <path class="cls-14" d="M256.0743,229.9712l-6.7396-23.5859c-1.0106,1.394-6.7261,9.1956-7.7426,13.0066-1.094,4.1026-4.6499,11.4885-4.6499,11.4885l-3.0087-21.3347-19.9672-7.3859c-.0544.0193-.1196.0452-.1744.0651,0,0-2.1207,9.588-3.7017,22.1726-1.3498,10.7443-2.1757,24.244-2.3826,29.5612,15.8,3.7821,31.8803,4.005,48.2948-.0217-.4051-6.822-.1022-16.9984.072-23.9657Z"/>
        <path class="cls-19" d="M256.4227,229.4487l-2.5322-8.0631-4.4531-14.1797c-.6526-.3775-1.6203-4.9333-2.0042-5.1317,0,0-4.7468,13.2151-5.8409,17.3177-1.094,4.1026-4.6499,11.4885-4.6499,11.4885l-3.0087-21.3347-19.9672-7.3859c-.858.306-1.7965.6567-2.7781,1.0326l-2.3172,23.992c13.9561,4.0351,31.0333,7.3628,47.5518,2.2644Z"/>
        <path class="cls-19" d="M237.4059,349.1523l-47.5842,1.3241c-3.6914,16.0192-7.5761,39.5652-8.1314,69.1359,0,0,34.1906,10.6675,62.9107,4.6499l.2735-3.5558-7.4685-71.5541Z"/>
        <path class="cls-19" d="M244.8744,420.7064s32.2759,6.2911,47.3198-6.5646c0,0-13.0456-36.8449-20.1717-65.9527l-34.6166.9632,7.4685,71.5541Z"/>
        <path class="cls-19" d="M272.0225,348.1891c-1.7503-7.1492-3.1434-13.8318-3.8985-19.387,0,0-43.9007,5.744-71.3215-2.325,0,0-3.3994,8.457-6.9808,23.9992l49.0242,10.4799,33.1767-12.7672Z"/>
        <path class="cls-2" d="M327.7565,141.3068s-44.4146,1.3751-66.3615-6.6372c0,0-1.0192,16.9906,9.1418,27.3137,4.9547,5.0338,11.4314,10.8997,24.7238,11.1656,10.7718.2154,27.5725-19.3283,32.4959-31.842Z"/>
        <path class="cls-12" d="M306.989,171.5496c-2.8041,4.858-10.2594,9.1862-15.7035,6.2103,0,0,.0182-.2462.0182-.2462.7498-.3357,1.4619-.51,2.1599-.6877,3.3397-.9658,6.9054-.8869,9.9367-2.8222,1.2354-.6754,2.3924-1.5462,3.3817-2.5882l.207.134h0Z"/>
        <path class="cls-20" d="M283.2361,56.6509c-2.4846-1.0259-4.4622-1.9465-6.448-2.7295-1.9907-.7656-3.7499-1.9854-5.8306-2.5295-3.2907-.7641-6.8449-.6164-10.1685-.0068,0,0-3.5029.8378-3.5029.8378l-.208-.4473c4.2959-2.7776,9.1839-4.5791,14.4246-4.2941,2.6814.1914,5.5548.462,7.7614,2.1709,2.1883,1.6225,3.9666,3.8879,4.3806,6.7216,0,0-.4087.2769-.4087.2769h0Z"/>
        <path class="cls-20" d="M323.0957,64.6997c-.8181-2.0828.3096-4.415,2.0837-5.6694,1.7406-1.3008,3.8731-1.0484,5.8464-.7441,3.4085.4928,6.49,2.1958,9.2317,4.1938,0,0-.2004.4509-.2004.4509-.8108-.123-1.6062-.2534-2.386-.3955-2.5604-.3511-5.2968-.6989-7.7358-.0836-.8105.3198-1.6046.7914-2.4204.9261-1.0395.221-2.1699.4761-3.9392,1.436l-.48-.1143h0Z"/>
        <path class="cls-5" d="M269.6076,67.9669c11.7455.2791,31.4451,11.1367,30.5781,36.8585-.8561,25.3974-30.1742,34.1211-49.5665,20.8201-19.3924-13.3011-16.3381-37.1174-12.5249-42.6009,3.8132-5.4835,11.2192-15.5599,31.5134-15.0777Z"/>
        <ellipse class="cls-20" cx="216.0169" cy="142.7686" rx="2.4617" ry="3.2023" transform="translate(-42.4435 127.1358) rotate(-30)"/>
        <ellipse class="cls-20" cx="232.8254" cy="136.1671" rx="2.4617" ry="3.4621" transform="translate(-36.8908 134.6556) rotate(-30)"/>
        <ellipse class="cls-20" cx="212.3649" cy="125.3423" rx="2.6582" ry="3.3245" transform="translate(-34.2196 122.9751) rotate(-30)"/>
        <path class="cls-9" d="M313.9394,56.0982c-1.4267-9.4709-4.882-18.2425-9.9473-26.2768-1.1195-1.9051-2.4808-3.7721-3.5923-5.7256,10.5365,6.2004,17.2917,20.022,13.5396,32.0024h0Z"/>
        <path class="cls-9" d="M293.8354,51.9951c-7.2685-15.2591-19.5749-27.2735-31.3429-39.1234-1.745-1.684-3.5038-3.3634-5.1728-5.1874,15.6768,8.5576,33.794,25.9569,36.5156,44.3108h0Z"/>
        <path class="cls-9" d="M285.6296,50.354c-9.4389-12.3536-22.5189-20.9956-36.2174-27.9803-10.2258-5.4779-20.5484-10.8165-31.1847-15.4538-3.5559-1.5173-7.1316-2.9899-10.9627-3.7487,3.9351-.0687,7.8138.9857,11.5776,2.0386,11.258,3.4171,21.9414,8.4198,32.3198,13.9048,13.8207,7.1964,27.3576,16.9717,34.4673,31.2395h0Z"/>
        <path class="cls-9" d="M230.2409,38.4558c-8.3604,17.3955-25.7322,30.4848-44.8593,33.3924-6.3995.944-12.9264.7694-19.1456-.5694,6.3611-.1985,12.5801-.8484,18.5972-2.2666,18.2865-4.3243,33.7802-16.016,45.4077-30.5564h0Z"/>
        <path class="cls-9" d="M190.0327,89.7417c7.8791-5.3718,17.0641-10.4461,24.8862-15.8501,2.6697-1.8547,5.252-3.7968,7.9368-5.8952-5.8407,11.398-20.5254,19.5166-32.823,21.7454h0Z"/>
        <path class="cls-9" d="M192.0842,99.9988c4.6953-3.8228,11.4406-8.8454,15.8025-12.8581,4.822-4.5499,8.3769-10.4007,11.4956-16.2371,3.133-5.9178,5.6464-12.167,7.4682-18.5628,1.7459-6.328,2.8113-12.9728,2.2002-19.4983,0,0,.978,1.4104.978,1.4104-17.3938-7.4463-37.5118-5.098-54.7663,1.7412,16.855-9.4226,38.2328-12.5659,56.376-4.9462,0,.0002.872.4093.872.4093.9409,7.4271-.1251,14.8966-2.1831,21.873-3.8555,12.6962-10.9117,26.665-21.1132,35.3588-5.4837,4.2203-11.2486,7.827-17.1299,11.3096h0Z"/>
        <path class="cls-5" d="M319.5826,97.7507c-1.4929,7.558-1.996,23.6666,7.1285,30.51,7.9807,5.9855,21.3855,4.5622,24.9747-6.9269,4.2373-13.5639-.4526-36.4144-5.0149-40.1212-4.5622-3.7068-22.5261-6.5582-27.0883,16.5381Z"/>
        <path class="cls-20" d="M322.7192,88.6262c.9769-7.113,7.9925-13.2465,15.4237-12.679,4.5014.2592,9.1104,2.1897,11.713,6.0011,2.3242,3.3659,2.7615,7.508,1.6624,10.955-1.6397-6.6073-5.9475-11.2483-12.5502-11.9093-6.5488-1.067-11.8742,2.699-16.2489,7.6322h0Z"/>
        <path class="cls-20" d="M346.6709,81.2125s6.5582.2851,11.1205-4.8474c0,0,1.4257,3.992-4.8474,8.2691,0,0,2.5663,4.8474,12.261-3.1365,0,0-.2851,8.8393-9.9799,11.9759,0,0,5.9879,4.8474,10.8353-1.4257,0,0-2.2811,9.1245-11.4056,8.5542,0,0-5.4177-18.249-7.9839-19.3895Z"/>
        <g>
          <ellipse class="cls-8" cx="336.9161" cy="104.6213" rx="16.9429" ry="19.3861"/>
          <g>
            <ellipse class="cls-8" cx="264.1381" cy="98.1075" rx="26.8738" ry="24.9314"/>
            <ellipse class="cls-20" cx="258.7937" cy="98.2518" rx="18.4892" ry="18.9192"/>
            <ellipse class="cls-6" cx="254.4914" cy="91.6914" rx="9.2931" ry="6.7722" transform="translate(54.2363 273.5459) rotate(-62.0567)"/>
            <ellipse class="cls-6" cx="257.0924" cy="107.6172" rx="2.889" ry="2.5985" transform="translate(35.347 276.4572) rotate(-60)"/>
            <ellipse class="cls-6" cx="268.0383" cy="101.4247" rx="4.2998" ry="5.5379"/>
            <ellipse class="cls-20" cx="335.2516" cy="104.4063" rx="13.6926" ry="14.5636"/>
            <ellipse class="cls-6" cx="331.3614" cy="99.215" rx="7.1067" ry="4.2903" transform="translate(39.1714 284.3338) rotate(-49.0251)"/>
            <ellipse class="cls-6" cx="340.2191" cy="106.2048" rx="2.8306" ry="3.4884"/>
          </g>
        </g>
        <path class="cls-3" d="M223.8506,329.952l-18.5795-2.7869s-2.2656,10.9909-5.0505,25.7506l21.4403,4.4876c.6201-12.5584,1.3553-23.1131,2.1897-27.4513Z"/>
        <path class="cls-3" d="M200.2206,352.9157c-4.3187,22.8884-9.8893,54.8652-10.2219,69.1665,0,0,16.3041,4.1556,29.438,3.0007,0,0,1.0852-46.8351,2.4979-75.4485l-21.714,3.2813Z"/>
        <path class="cls-18" d="M244.6008,424.2622c-2.735-13.0513-4.1868-26.5829-5.2124-39.8789-.5318-8.1085-.9164-16.9345-.787-25.0266,6.0273-2.5527,12.2243-4.8073,18.6723-5.9861-2.9133,1.1597-5.7436,2.4476-8.5522,3.7796-2.4544,1.2369-5.9406,2.8794-8.2908,4.2005,0,0,.7163-1.1957.7163-1.1957.6805,7.6864,1.3654,16.2282,1.9297,23.9687.8542,13.0779,1.7126,27.0434,1.5242,40.1384h0Z"/>
        <path class="cls-11" d="M196.3379,596.8433c-.9894-3.2596-.6696-6.3653-.1283-9.5976.3245-3.1772.5715-6.3591.7499-9.5576,0,0,.2464-.0144.2464-.0144.7259,4.7657,1.3378,9.6983.937,14.4998-.2945,1.5979-.7156,3.1751-1.5596,4.6958l-.2454-.0259h0Z"/>
        <path class="cls-11" d="M301.4697,594.3977c-2.0851-2.729-2.9292-5.7568-3.642-8.9864-.9015-3.0908-1.8977-6.1424-3.2233-9.0915,0,0,.2119-.1265.2119-.1265,1.9769,2.6155,3.5595,5.5406,4.8674,8.5461,1.5264,2.9925,2.5065,6.1531,2.0246,9.596,0,0-.2387.0622-.2387.0622h0Z"/>
        <path class="cls-12" d="M224.2966,161.1997c6.9487,2.7926,13.7909,5.9194,20.9272,8.2049,0,0-.091.3586-.091.3586-4.0947,1.3704-8.0557.5775-11.8137-.8663-3.7137-1.5885-6.9101-3.7341-9.1758-7.3602,0,0,.1534-.337.1534-.337h0Z"/>
        <path class="cls-12" d="M195.4568,131.1172c-8.2527,2.709-17.8058,1.6186-25.3631-2.6145,8.5764.9183,16.709,1.8982,25.3631,2.6145h0Z"/>
        <path class="cls-5" d="M245.3838,198.4502c.4111,4.8728.2203,7.5735-.7969,10.6251,0,0,9.7739,7.362,13.2614,14.5421,0,0-10.437-23.2022-12.4644-25.1672Z"/>
        <g>
          <path class="cls-13" d="M211.5387,203.0812s-38.5491-17.5594-65.5213-34.2164c-26.9721-16.657-78.3626-49.5017-78.3626-49.5017,0,0-.3674-23.9756-5.6462-31.683-5.2788-7.7074-7.2979-4.9949-6.0169,3.4352,1.281,8.4301,4.5115,19.5838,4.5825,23.3351,0,0-11.8304-7.454-29.2781-8.5904-17.4477-1.1364-39.2859,2.7707-24.1275,6.0209,15.1585,3.2502,33.0462,2.5666,33.0462,2.5666,0,0-28.6363,4.8122-35.88,9.5215-7.2437,4.7093-5.7524,6.0182,7.0807,4.9127,12.8331-1.1055,27.7911-3.8904,35.5694-5.4178,0,0-22.3062,15.6485-24.3365,22.3295-2.0303,6.6811,6.8983,2.1124,11.2303-1.4634,4.332-3.5758,19.0478-16.8808,19.0478-16.8808,0,0,11.5241.3858,13.8663-1.2113,0,0,83.6079,69.1148,139.535,93.2468l5.2108-16.4033Z"/>
          <path class="cls-13" d="M211.5387,203.0812s-38.5491-17.5594-65.5213-34.2164c-26.9721-16.657-78.3626-49.5017-78.3626-49.5017,0,0-.3674-23.9756-5.6462-31.683-5.2788-7.7074-7.2979-4.9949-6.0169,3.4352,1.281,8.4301,2.2202,16.5862,2.2912,20.3376,0,0-9.5391-4.4564-26.9868-5.5928-17.4477-1.1364-39.2859,2.7707-24.1275,6.0209,15.1585,3.2502,33.0462,2.5666,33.0462,2.5666,0,0-28.6363,4.8122-35.88,9.5215-7.2437,4.7093-5.7524,6.0182,7.0807,4.9127,12.8331-1.1055,27.7911-3.8904,35.5694-5.4178,0,0-22.3062,15.6485-24.3365,22.3295-2.0303,6.6811,6.8983,2.1124,11.2303-1.4634,4.332-3.5758,19.0478-16.8808,19.0478-16.8808,0,0,11.5241.3858,13.8663-1.2113,0,0,83.6079,69.1148,139.535,93.2468l5.2108-16.4033Z"/>
          <path class="cls-19" d="M207.5267,226.4948c.3897.1712,2.8732,1.2192,3.2603,1.3862l3.3657-25.5986s-14.8686-4.7834-30.3925-12.6379c2.3728,7.8413,10.4013,26.3071,23.7666,36.8503Z"/>
          <path class="cls-14" d="M210.0498,227.9254c-12.558-12.6048-21.9504-28.5149-26.2897-38.2809-6.741-3.4107-14.0967-7.2503-21.3355-11.2473.89,5.6419,2.4047,12.8425,4.9502,20.326,13.0938,7.9853,30.6664,22.912,42.6749,29.2022Z"/>
          <path class="cls-3" d="M162.4246,178.3972c-5.6587-3.1244-11.2453-6.3445-16.4072-9.5321-5.8941-3.6404-12.9549-8.0532-20.39-12.7279-1.2209,3.5831-2.5001,8.0987-3.3116,12.5271,14.1528,10.1255,29.7132,20.7009,45.0591,30.059-2.5455-7.4835-4.0603-14.684-4.9502-20.326Z"/>
        </g>
        <path class="cls-5" d="M212.4772,202.0953s-2.4668,14.0217-1.1678,21.257c0,0,9.522-10.9155,22.624-13.8066-6.1854-4.6056-10.8546-9.7384-13.2162-15.6742l-8.24,8.2239Z"/>
        <path class="cls-12" d="M428.3406,175.2781c3.5624,5.1249,4.5751,12.4459,1.7419,18.115.237-6.216-.6051-11.9626-1.7419-18.115h0Z"/>
        <path class="cls-12" d="M419.3244,187.6245c-3.3855-1.7042-6.4181-1.2107-9.6543.0773-.4722.1928-.9495.3947-1.4927.5421,2.1955-3.9677,8.9077-5.1268,11.147-.6194h0Z"/>
        <path class="cls-12" d="M65.396,122.6636c-3.2575-1.9378-6.3169-1.6588-9.6357-.6017-.4849.1593-.9748.327-1.5271.4359,2.4689-3.8036,9.2459-4.4877,11.1628.1658h0Z"/>
        <path class="cls-21" d="M305.257,145.4128s0,17.502-13.4851,20.0842l-5.643-.868s-22.4334-12.8824-24.2113-27.1724l43.3395,7.9562Z"/>
        <path class="cls-5" d="M323.4941,141.1497l-3.6926,5.744s-22.0585.622-37.9515-2.4617c-13.7446-2.6669-20.3092-9.6417-20.3092-9.6417,0,0,29.5554,7.9271,61.9533,6.3594Z"/>
        <path class="cls-4" d="M297.4409,167.8184s-12.343-17.3481-34.4641-20.3092c0,0,2.3591,11.488,9.6417,16.8218l24.8224,3.4874Z"/>
        <path class="cls-5" d="M303.8003,170.2801l1.8463-3.4874s-22.8735,1.436-34.8744-4.1029c0,0,1.6706,2.154,4.649,4.0934,8.9931,5.8561,19.4554,9.5486,28.3791,3.4969Z"/>
        <path class="cls-20" d="M295.5913,84.2947c-9.2714-10.2661-22.7527-14.866-36.0933-12.0708-6.4567,1.2339-12.7021,3.5452-17.197,8.003-4.5081,4.4133-6.958,11.0332-7.1199,18.094-2.3696-6.9669-.9635-15.2171,3.7256-21.084,4.7057-6.035,12.2536-9.2549,19.5654-10.5808,14.4691-3.1271,31.1412,3.8523,37.1191,17.6387h0Z"/>
        <path class="cls-20" d="M244.0205,76.08s-9.6948-4.2771-12.261-13.1164c0,0-1.1406,11.1205,6.2731,14.8273,0,0-9.1245,3.4217-12.5462-5.1325,0,0,.5703,10.5502,7.9839,13.1164,0,0,.8554,2.8514-1.7108,2.8514-2.5663,0-10.8353-3.1365-10.8353-3.1365,0,0,6.2731,11.1205,13.9719,9.9799,0,0,2.2811-17.3935,9.1245-19.3895Z"/>
        <path class="cls-13" d="M351.352,126.8554s-10.6251-8.3607-26.6499-9.2317c-16.0248-.8709-15.328,5.0513-15.328,5.0513,0,0,22.2953,13.9346,22.9921,13.7604s11.1477-1.5676,11.1477-1.5676l7.8382-8.0124Z"/>
        <path class="cls-13" d="M299.5993,116.5292s-42.0338-11.3194-69.9029,1.2217c0,0,13.584,11.6097,14.2807,11.6097s23.1971,4.2456,24.068,4.594c.8709.3484,19.7802,1.4129,20.1743-1.4587.1381-1.0062,9.2317-3.832,9.2317-3.832l2.1482-12.1347Z"/>
      </g>
    </g>
  </g>
</svg>