<?xml version="1.0" encoding="UTF-8"?>
<svg xmlns="http://www.w3.org/2000/svg" version="1.1" viewBox="0 0 304.8555 596.8692">
  <defs>
    <style>
      .cls-1 {
        fill: #8b73a6;
      }

      .cls-2 {
        fill: #42273d;
      }

      .cls-3 {
        fill: #e4e4e4;
      }

      .cls-4 {
        fill: #854d7e;
      }

      .cls-5 {
        fill: #dadbdb;
      }

      .cls-6 {
        fill: #fff;
      }

      .cls-7 {
        fill: #7a4371;
      }

      .cls-8 {
        fill: #577a88;
      }

      .cls-9 {
        fill: #42213d;
      }

      .cls-10 {
        fill: #6d6f85;
      }

      .cls-11 {
        fill: #474857;
      }

      .cls-12 {
        fill: #705394;
      }

      .cls-13 {
        fill: #ac93c9;
      }

      .cls-14 {
        fill: #c5454f;
      }

      .cls-15 {
        fill: #aaabab;
      }

      .cls-16 {
        fill: #61325a;
      }

      .cls-17 {
        fill: #db90bd;
      }

      .cls-18 {
        fill: #a65887;
      }

      .cls-19 {
        fill: #2a4569;
      }

      .cls-20 {
        fill: #366199;
      }
    </style>
  </defs>
  <!-- Generator: Adobe Illustrator 28.6.0, SVG Export Plug-In . SVG Version: 1.2.0 Build 709)  -->
  <g>
    <g id="Layer_2">
      <g>
        <path class="cls-16" d="M67.3189,122.1543s-11.488,79.5957-.4103,147.7033c0,0,13.9498,6.5646,25.4378,5.744,11.488-.8206,70.5694-7.3852,91.494-3.6926,20.9246,3.6926,60.3122,12.7189,64.415,14.7703,4.1029,2.0514,7.7955,2.872,7.7955,2.872,0,0-11.488-18.0526-13.5395-32.823,0,0,11.8983,18.0526,27.4892,22.5658,0,0-44.311-45.5418-45.1316-122.6758l-114.8803-34.8744-42.6698.4103Z"/>
        <path class="cls-17" d="M76.7555,127.8983s-29.1304-4.5132-56.2093-22.5658c-27.0789-18.0526-24.6172-28.7201-8.616-27.8995,16.0012.8206,50.4653,10.6675,61.1328,15.5909,10.6675,4.9234,27.0789,18.4629,27.0789,18.4629l-1.2309,20.9246-22.1555-4.5132Z"/>
        <path class="cls-18" d="M22.1874,87.2799s13.5395,19.2835,34.0538,25.8481"/>
        <path class="cls-18" d="M69.2548,115.2227c-1.0754-2.6661-3.0559-7.4048.2801-9.2122,4.1389-1.6281,8.8503-1.8909,13.2199-1.334,2.4805.4095,4.9366,1.0704,7.1919,2.2652l-.0571.24c-3.7628.0414-7.2835-.0727-10.9624-.2782-2.3593-.1933-4.8024-.2856-7.1299.0927-.9651.2114-2.1247.3011-2.5938,1.2355-.4223.8836-.4619,2.1426-.3598,3.3182.1094,1.1946.3384,2.4033.6421,3.5862l-.231.0867h0Z"/>
        <path class="cls-1" d="M132.5749,159.5558s-.5742,26.7018-5.7423,43.9287l6.3165,14.93,4.5939,14.0687,15.2171.8613,3.4454-15.5043s-2.8712-14.93-3.4454-25.5533c-.5742-10.6233-.2871-25.8404-.2871-25.8404l-20.0981-6.8908Z"/>
        <path class="cls-10" d="M89.4744,561.9819l-4.1029,32.4127s20.5143,4.9234,32.0024,0l-.4103-37.7464s-23.7966-1.2309-27.4892,5.3337Z"/>
        <path class="cls-10" d="M183.0199,564.0332c.6924,10.7439,1.7413,20.5323,3.6925,27.8995,0,0,23.3864,4.9236,33.6436.8207l-11.0777-39.7978-26.2583,11.0776Z"/>
        <path class="cls-17" d="M289.3781,109.7315s16.8956-2.1997,15.3814,7.0285c-1.7589,10.7196-22.308,20.9838-45.7366,24.549l-.4074-26.6881c10.7046-3.2236,21.046-5.1635,30.7626-4.8894Z"/>
        <path class="cls-18" d="M288.8739,116.4102c-.2792,7.4288-6.2597,14.0628-13.33,15.9253-1.0093.2656-2.0557.3967-3.0814.4863.8662-.6147,1.7715-1.0405,2.6047-1.6003,5.9423-3.5687,10.5269-8.6939,13.8066-14.8113h0Z"/>
        <path class="cls-13" d="M258.1024,111.0765s17.0149-6.9476,36.9801-1.5488c0,0-24.2612,1.9591-35.3389,11.806l-1.6411-10.2572Z"/>
        <path class="cls-13" d="M246.7699,56.0084s-18.0593-23.0757-63.2074-30.6004c-45.1482-7.5247-73.742,4.5148-73.742,4.5148l-16.0527,70.7321s-35.1407-21.408-65.0158-23.2219c-20.6818-1.2557-23.274.1462-23.274.1462,0,0,63.9578,10.7919,81.1244,27.9585,1.8463,1.8463-3.0772,3.4874-5.3337,4.9234-2.2566,1.436-3.0772,4.1029-.2051,5.744,2.872,1.6411,7.3852,2.6669,6.7697,4.7183-.6154,2.0514-9.9432,6.7947-9.9432,6.7947,0,0,7.8442,2.8762,12.8123,2.8762,0,0,17.3113,17.4718,28.3127,23.9726,19.4403,11.4874,80.4065,31.1635,87.8014,30.7715,7.3949-.3919,32.0024-12.3086,45.1316-28.3098,13.1292-16.0012,12.2095-58.4401-5.1781-101.0203Z"/>
        <path class="cls-7" d="M246.7699,56.0084s-35.2381,5.928-107.8784-23.3578c0,0,.2871,43.3545-27.276,59.7201,0,0-.2871,13.7816,1.7227,23.5435l-19.5704-15.259c-7.4615-4.3827-15.939-8.4552-24.7677-12.4199,0,0,7.5873-51.8522,24.8143-72.5246C111.0413-4.9616,144.3467-1.2291,169.0387,4.5132c24.692,5.7423,45.9385,18.6625,54.552,24.4049,8.6135,5.7423,21.9536,20.5881,23.1792,27.0903Z"/>
        <path class="cls-7" d="M112.4505,321.1435c-12.7189,2.4617-30.7715,9.8469-39.7978,19.6938-9.0263,9.8469-26.2584,18.0526-35.695,15.5909,0,0,10.2572,20.1041,27.4892,23.7966,0,0-6.9749,5.3337-12.7189,4.5132,0,0,12.3086,11.8983,27.4892,6.9749l.8206,17.2321s13.1292-11.0777,15.1806-15.5909c2.0514-4.5132,32.823-39.3875,32.823-39.3875l-15.5909-32.823Z"/>
        <path class="cls-7" d="M104.655,413.8683s-13.3489,130.0822-15.1806,145.6519c-.8206,6.9749-1.6411,13.2659-1.6411,13.2659l6.1543-9.9836s3.2823,15.1806,4.5132,14.36c1.2309-.8206,6.1543-9.8469,6.1543-9.8469,0,0,5.3337,9.8469,6.9749,7.3852,1.6411-2.4617,5.7441-12.7189,5.7441-12.7189-1.2641-43.2713-.3149-92.852,2.0515-146.4726l-14.7704-1.641Z"/>
        <path class="cls-7" d="M158.8129,410.586l20.5143,132.1124,3.6926,30.6348,8.2057-8.8896s4.1029,7.3852,7.3852,9.4366l3.2823-11.0777s6.5646,10.6675,7.7955,10.6675c1.2309,0,2.872-7.7955,2.872-7.7955l-38.9773-158.781-14.7703,3.6926Z"/>
        <path class="cls-3" d="M48.7192,237.4448s1.3677,22.4291,13.6763,49.5081l16.138-3.8293s-3.5558-18.0526-5.744-33.9171c0,0,26.5319-13.6762,43.4904-15.8644,0,0-.2735,38.0199-3.5558,57.4402-3.2823,19.4202-7.8638,35.695-7.8638,35.695,0,0,51.9013,8.616,71.3215,2.325,0,0-15.0439-62.6371-12.0351-93.8189,0,0,24.3437,7.9322,36.6523,15.5909l-1.5728,39.3875,14.5652,2.872s11.3513-36.7891,7.5219-49.9182c0,0-53.3373-34.1906-62.3636-38.8405,0,0-8.2057,11.2145-9.2998,15.3174-1.0941,4.1029-4.6499,11.488-4.6499,11.488l-3.0088-21.3349-19.9672-7.3854c-29.2777,12.4301-56.9262,24.6355-73.3047,35.2848Z"/>
        <path class="cls-20" d="M86.767,217.5785c-5.8805,2.6933-11.4756,5.3473-16.6766,7.9468"/>
        <path class="cls-14" d="M115.7652,253.9582c.4494-11.5445.5147-20.6162.5147-20.6162-8.4793,1.0941-19.3518,5.06-28.1047,8.753-8.1984-3.9086-13.7273-9.2745-17.8924-16.5749,10.3976-5.5021,38.7318-18.7256,51.7412-23.3601l19.9672,7.3854,3.0088,21.3349s3.5558-7.3852,4.6499-11.488c1.0941-4.1029,9.2998-15.3174,9.2998-15.3174,3.4913,1.7986,13.6119,8.0166,24.7111,14.9663,6.5343,4.0914,13.4078,8.4363,19.4674,12.2822-3.8636,5.0966-9.0575,9.2673-15.4534,12.6018-11.4448-5.0051-23.5281-8.942-23.5281-8.942-.5316,5.5089-.4997,11.9994-.0867,18.9533-16.4145,4.0267-32.4948,3.8038-48.2948.0217Z"/>
        <path class="cls-20" d="M183.6608,219.0412c-11.0992-6.9496-24.6788-15.1678-28.1701-16.9663,0,0-4.7467,13.2146-5.8408,17.3174-1.0941,4.1029-4.6499,11.488-4.6499,11.488l-3.0088-21.3349-19.9672-7.3854c-8.2164,2.9271-22.5456,9.2801-34.6083,14.9502,0,0,57.3277,34.5968,96.2452,1.931Z"/>
        <path class="cls-20" d="M104.8602,326.4772s-14.0181,34.8744-15.1122,93.1351c0,0,34.1906,10.6675,62.9107,4.6499l.2735-3.5558s32.2759,6.2911,47.3198-6.5646c0,0-20.2408-57.1666-24.0702-85.3397,0,0-43.9007,5.744-71.3215-2.325Z"/>
        <path class="cls-2" d="M233.0749,145.5406s-29.9509,4.9234-48.8241-2.4617c0,0,1.8526,18.0979,18.8732,21.7452,5.744,1.2309,7.7955-.8206,7.7955-.8206,0,0,17.2321-5.9492,22.1555-18.4629Z"/>
        <path class="cls-4" d="M195.3887,145.9887c-3.9143-.6326-7.709-1.5679-11.138-2.9097,0,0,1.8526,18.0979,18.8732,21.7452,2.872.6154,4.8208.41,6.0517.0516-.8708-7.0793-6.2423-13.2121-13.7869-18.887Z"/>
        <path class="cls-5" d="M185.6867,148.6178c-.58-.492-1.436-5.5389-1.436-5.5389,11.7338,4.5915,31.0011,4.2702,41.439,3.4874,0,0-12.3563,12.9546-40.003,2.0514Z"/>
        <path class="cls-12" d="M215.1776,166.9761c-.048,1.7754-.9891,3.2696-2.2104,4.4317-1.1871,1.1792-2.8973,1.5149-4.4148,1.9131-1.5457.3699-3.104.5876-4.647.5283-1.5197-.0305-3.0236-.284-4.4878-.6348,0,0,.0273-.3691.0273-.3691l2.1606-.3289c2.0415-.405,4.0641-1.0451,5.9204-1.9732,2.322-1.6439,4.5234-2.9629,7.3409-3.7681-.0001-.0002.3107.201.3107.201h0Z"/>
        <path d="M195.1241,63.2114c-2.4849-1.0259-4.4622-1.9465-6.4482-2.7295-1.9906-.7656-3.7498-1.9854-5.8306-2.5295-3.2903-.7642-6.8449-.6165-10.1682-.0068,0,0-3.5029.8378-3.5029.8378l-.208-.4473c4.2957-2.7776,9.184-4.5793,14.4246-4.2941,2.681.1914,5.555.462,7.7614,2.1709,2.1883,1.6225,3.9663,3.8879,4.3806,6.7216,0,0-.4087.2769-.4087.2769h0Z"/>
        <path d="M235.2965,72.4524c-.8181-2.0828.3096-4.4148,2.0837-5.6694,1.7408-1.3003,3.873-1.0488,5.8464-.7438,3.4089.4927,6.4899,2.1956,9.2319,4.1935,0,0-.2004.4509-.2004.4509-.811-.123-1.6062-.2532-2.3862-.3955-2.5606-.3508-5.2967-.699-7.7358-.0836-.8104.3201-1.6048.7916-2.4204.9261-1.0395.2212-2.1697.4763-3.939,1.436l-.4802-.1143h0Z"/>
        <path class="cls-5" d="M177.6653,67.9669c11.7455.2791,29.192,11.1595,30.5781,36.8585,1.4331,26.5717-30.1742,34.1211-49.5665,20.8201-19.3924-13.3011-16.3381-37.1174-12.5249-42.6009,3.8132-5.4835,11.2192-15.5599,31.5134-15.0777Z"/>
        <ellipse cx="124.0746" cy="142.7686" rx="2.4617" ry="3.2023" transform="translate(-54.7614 81.1647) rotate(-30)"/>
        <ellipse cx="140.8831" cy="136.1671" rx="2.4617" ry="3.4621" transform="translate(-49.2088 88.6845) rotate(-30)"/>
        <ellipse cx="120.4226" cy="125.3423" rx="2.6582" ry="3.3245" transform="translate(-46.5376 77.004) rotate(-30)"/>
        <path class="cls-9" d="M221.9972,56.0982c-1.4267-9.4709-4.882-18.2425-9.9473-26.2768-1.1195-1.9051-2.4808-3.7721-3.5923-5.7256,10.5364,6.2004,17.2918,20.022,13.5396,32.0024h0Z"/>
        <path class="cls-9" d="M201.8929,51.9951c-7.268-15.2592-19.5747-27.2735-31.3426-39.1234-1.7453-1.684-3.5041-3.3634-5.173-5.1874,15.6504,8.5286,33.8182,25.9922,36.5156,44.3108h0Z"/>
        <path class="cls-9" d="M193.6874,50.354c-9.4389-12.3536-22.5189-20.9956-36.2174-27.9803-10.2258-5.4778-20.5485-10.8164-31.1845-15.4538-3.5562-1.5173-7.1319-2.9899-10.9629-3.7487,3.9353-.0687,7.8135.9857,11.5776,2.0386,11.2581,3.4171,21.9409,8.4197,32.3198,13.9048,13.8208,7.1964,27.3576,16.9717,34.4673,31.2395h0Z"/>
        <path class="cls-9" d="M138.2987,38.4558c-8.3604,17.3957-25.732,30.4845-44.8593,33.3924-6.3995.944-12.9264.7694-19.1456-.5694,6.3608-.1985,12.5801-.8484,18.5972-2.2666,18.2867-4.3242,33.7801-16.0162,45.4077-30.5564h0Z"/>
        <path class="cls-9" d="M98.0907,89.7417c7.8786-5.3719,17.0642-10.4458,24.8857-15.8501,2.67-1.8547,5.252-3.7968,7.937-5.8952-5.8409,11.3979-20.5252,19.5166-32.8228,21.7454h0Z"/>
        <path class="cls-9" d="M100.142,99.9988c4.6953-3.8229,11.4408-8.8455,15.8028-12.8581,4.8218-4.5501,8.3763-10.4009,11.4956-16.2371,3.1327-5.9178,5.6464-12.167,7.4677-18.5628,1.7463-6.3279,2.8114-12.9727,2.2007-19.4983,0,0,.978,1.4104.978,1.4104-17.394-7.4462-37.512-5.0981-54.7666,1.7412,16.855-9.4225,38.2325-12.5659,56.376-4.9462,0,.0002.872.4093.872.4093.9416,7.427-.1255,14.8967-2.1831,21.873-3.855,12.6959-10.9119,26.6655-21.1135,35.3588-5.4837,4.2203-11.2483,7.827-17.1297,11.3096h0Z"/>
        <path class="cls-5" d="M120.246,202.1602s2.0514,19.8989,4.5132,25.4378c0,0,10.6675-14.36,17.2321-18.0526,0,0-7.7955-7.18-10.052-9.0263-2.2566-1.8463-4.5132-5.5389-4.5132-5.5389l-7.18,7.18Z"/>
        <path class="cls-5" d="M153.4415,198.4502c.4111,4.8728.2203,7.5735-.7969,10.6251,0,0,10.0661,10.317,13.5535,17.497,0,0-.0977-15.8529-12.7566-28.1221Z"/>
        <path d="M203.4034,85.2046c-4.6274-5.3547-10.3118-9.4099-16.4758-11.6621-11.4914-4.23-27.6135-1.7427-36.524,6.6409-4.538,4.4126-7.0023,11.0537-7.1649,18.1375-2.3769-6.989-.955-15.2754,3.7739-21.1428,4.7425-6.0417,12.3202-9.2404,19.666-10.5484,14.7057-3.0911,31.0913,4.519,36.7249,18.5749h0Z"/>
        <path d="M152.0782,76.08s-9.6948-4.2771-12.261-13.1164c0,0-1.1406,11.1205,6.2731,14.8273,0,0-9.1245,3.4217-12.5462-5.1325,0,0,.5703,10.5502,7.9839,13.1164,0,0,.8554,2.8514-1.7108,2.8514-2.5663,0-10.8353-3.1365-10.8353-3.1365,0,0,6.2731,11.1205,13.9719,9.9799,0,0,2.2811-17.3935,9.1245-19.3895Z"/>
        <path class="cls-5" d="M227.6403,97.7507c-1.4929,7.558-1.996,23.6666,7.1285,30.51,7.9807,5.9855,21.3855,4.5622,24.9747-6.9269,4.2373-13.5639-.4526-36.4144-5.0149-40.1212-4.5622-3.7068-22.5261-6.5582-27.0883,16.5381Z"/>
        <path d="M230.777,88.6262c.9769-7.113,7.9925-13.2465,15.4237-12.679,4.5014.2592,9.1104,2.1897,11.713,6.0011,2.324,3.3659,2.7615,7.508,1.6624,10.955-1.6397-6.6073-5.9475-11.2483-12.5502-11.9093-6.5488-1.067-11.8742,2.699-16.2489,7.6322h0Z"/>
        <path d="M254.7286,81.2125s6.5582.2851,11.1205-4.8474c0,0,1.4257,3.992-4.8474,8.2691,0,0,2.5663,4.8474,12.261-3.1365,0,0-.2851,8.8393-9.9799,11.9759,0,0,5.9879,4.8474,10.8353-1.4257,0,0-2.2811,9.1245-11.4056,8.5542,0,0-5.4177-18.249-7.9839-19.3895Z"/>
        <path class="cls-3" d="M98.0564,422.0822s16.3042,4.156,29.438,3.0007c0,0,1.6411-79.8692,4.3764-94.0925l-18.0526-2.7352s-15.2147,70.3039-15.7618,93.8271Z"/>
        <path class="cls-13" d="M63.2161,286.6794l15.1806-3.6926s5.1067,25.9663,13.9498,42.6698c1.8463,3.4874,4.1029,5.5389,4.1029,5.5389,0,0,6.1926-1.7922,9.6801-5.2796,3.4874-3.4874,11.7664-10.459,16.7344-11.2434,7.5002-1.1842,15.8451,7.7018,18.7171,15.9076,2.872,8.2057-.2051,7.3852-.8206,7.18-.6154-.2051-14.5652-13.5395-14.5652-13.5395,0,0,11.8644,16.3534,9.4366,26.8738-.6154,2.6669-13.9498-13.1292-16.6166-18.6681,0,0,7.7162,17.2178,5.5389,28.1047-.2051,1.0257-11.2829-23.7966-11.2829-23.7966,0,0-6.3594,5.9492-11.8983,7.18-5.5389,1.2309-9.8469,1.6411-9.8469,1.6411,0,0-22.7709-34.6692-28.3098-58.8762Z"/>
        <path class="cls-13" d="M199.2262,289.9616s-4.1029,27.4892-5.1286,35.2847c-1.0257,7.7955-1.2309,14.36-5.1286,11.0777-3.8977-3.2823-14.5652-18.0526-20.1041-18.0526-5.5389,0-11.2542,10.253-9.4366,22.9761.2051,1.436,4.1029-.2051,6.3594-6.3594,2.2566-6.1543,5.5389-8.2057,5.5389-8.2057,0,0-5.5422,15.1541-3.4874,31.5921.6154,4.9234,9.6417-24.0018,9.6417-24.0018,0,0-3.2059,20.7179,0,30.9767,1.0257,3.2823,5.3337-8.8212,5.744-20.5143,0,0,1.6411,3.6926,7.5903,3.4874,5.9492-.2051,8.2057-7.3852,12.924-20.9246,4.7183-13.5395,10.052-34.4641,10.052-34.4641l-14.5652-2.872Z"/>
        <path class="cls-11" d="M104.3954,596.8433c-.9889-3.2596-.6696-6.3653-.1278-9.5976.3239-3.1772.5713-6.3592.7499-9.5576,0,0,.2461-.0144.2461-.0144.7263,4.7657,1.3376,9.6983.9368,14.4998-.2942,1.5979-.7151,3.1751-1.5593,4.6958l-.2456-.0259h0Z"/>
        <path class="cls-11" d="M209.5275,594.3977c-2.0851-2.7289-2.9294-5.7567-3.642-8.9864-.9015-3.0908-1.8977-6.1424-3.2233-9.0915,0,0,.2119-.1265.2119-.1265,1.9769,2.6155,3.5595,5.5406,4.8674,8.5461,1.5264,2.9925,2.5065,6.1531,2.0246,9.596,0,0-.2387.0622-.2387.0622h0Z"/>
        <path class="cls-12" d="M131.6444,161.2298c8.3768-.8011,16.3941,3.0559,22.0118,9.1387,0,.0003-.0909.3591-.0909.3591-5.8207-1.4657-11.2893-4.0165-16.7188-6.5192-1.8095-.836-3.5971-1.7166-5.3632-2.6454l.1611-.3333h0Z"/>
        <path class="cls-12" d="M103.5145,131.1172c-8.2527,2.7089-17.8057,1.6187-25.3628-2.6145,8.5762.9183,16.7087,1.8981,25.3628,2.6145h0Z"/>
        <path class="cls-15" d="M71.6146,243.0283c1.3576,3.4423,1.8897,7.0329,1.569,10.7204-1.3645-3.4411-1.8828-7.0334-1.569-10.7204h0Z"/>
        <path class="cls-15" d="M204.1822,251.657c-5.7315-1.492-11.1282-4.027-15.9351-7.4874,5.5997,1.9513,10.8529,4.4335,15.9351,7.4874h0Z"/>
        <path class="cls-19" d="M153.1556,422.3443c-2.7357-13.051-4.1869-26.5831-5.2129-39.8789-.532-8.1086-.9159-16.9344-.787-25.0266,6.0269-2.5529,12.2249-4.8073,18.6723-5.9864-2.9131,1.16-5.7436,2.4476-8.5522,3.7796-2.4543,1.237-5.9402,2.8796-8.2905,4.2005,0,0,.7163-1.1954.7163-1.1954.6802,7.6862,1.3655,16.2281,1.9297,23.9685.8544,13.078,1.7126,27.0436,1.5244,40.1387h0Z"/>
        <g>
          <ellipse class="cls-8" cx="244.6684" cy="104.2071" rx="16.9429" ry="19.3861"/>
          <g>
            <ellipse class="cls-8" cx="171.8904" cy="97.6933" rx="26.8738" ry="24.9314"/>
            <ellipse cx="166.546" cy="97.8376" rx="18.4892" ry="18.9192"/>
            <ellipse class="cls-6" cx="162.2437" cy="91.2772" rx="9.2931" ry="6.7722" transform="translate(5.5814 191.833) rotate(-62.0567)"/>
            <ellipse class="cls-6" cx="164.8447" cy="107.2031" rx="2.889" ry="2.5985" transform="translate(-10.4182 196.3612) rotate(-60)"/>
            <ellipse class="cls-6" cx="175.7906" cy="101.0106" rx="4.2998" ry="5.5379"/>
            <ellipse cx="243.0039" cy="103.9921" rx="13.6926" ry="14.5636"/>
            <ellipse class="cls-6" cx="239.1137" cy="98.8008" rx="7.1067" ry="4.2903" transform="translate(7.7258 214.5445) rotate(-49.0251)"/>
            <ellipse class="cls-6" cx="247.9714" cy="105.7906" rx="2.8306" ry="3.4884"/>
          </g>
        </g>
      </g>
    </g>
  </g>
</svg>