<?xml version="1.0" encoding="UTF-8"?>
<svg xmlns="http://www.w3.org/2000/svg" version="1.1" viewBox="0 0 407.2203 596.8692">
  <defs>
    <style>
      .cls-1 {
        fill: #8b73a6;
      }

      .cls-2 {
        fill: #42273d;
      }

      .cls-3 {
        fill: #284770;
      }

      .cls-4 {
        fill: #e4e4e4;
      }

      .cls-5 {
        fill: #854d7e;
      }

      .cls-6 {
        fill: #dadbdb;
      }

      .cls-7 {
        fill: #fff;
      }

      .cls-8 {
        fill: #7a4371;
      }

      .cls-9 {
        fill: #577a88;
      }

      .cls-10 {
        fill: #42213d;
      }

      .cls-11 {
        fill: #6d6f85;
      }

      .cls-12 {
        fill: #474857;
      }

      .cls-13 {
        fill: #9e2c35;
      }

      .cls-14 {
        fill: #705394;
      }

      .cls-15 {
        fill: #ac93c9;
      }

      .cls-16 {
        fill: #c5454f;
      }

      .cls-17 {
        fill: #aaabab;
      }

      .cls-18 {
        fill: #61325a;
      }

      .cls-19 {
        fill: #db90bd;
      }

      .cls-20 {
        fill: #a65887;
      }

      .cls-21 {
        fill: #2a4569;
      }

      .cls-22 {
        fill: #366199;
      }
    </style>
  </defs>
  <!-- Generator: Adobe Illustrator 28.6.0, SVG Export Plug-In . SVG Version: 1.2.0 Build 709)  -->
  <g>
    <g id="Layer_2">
      <g>
        <path class="cls-18" d="M67.3189,122.1543s-11.488,79.5957-.4103,147.7033c0,0,13.9498,6.5646,25.4378,5.744,11.488-.8206,70.5694-7.3852,91.494-3.6926,20.9246,3.6926,60.3122,12.7189,64.415,14.7703,4.1029,2.0514,7.7955,2.872,7.7955,2.872,0,0-11.488-18.0526-13.5395-32.823,0,0,11.8983,18.0526,27.4892,22.5658,0,0-44.311-45.5418-45.1316-122.6758l-114.8803-34.8744-42.6698.4103Z"/>
        <path class="cls-19" d="M76.7555,127.8983s-29.1304-4.5132-56.2093-22.5658c-27.0789-18.0526-24.6172-28.7201-8.616-27.8995,16.0012.8206,50.4653,10.6675,61.1328,15.5909,10.6675,4.9234,27.0789,18.4629,27.0789,18.4629l-1.2309,20.9246-22.1555-4.5132Z"/>
        <path class="cls-20" d="M22.1874,87.2799s13.5395,19.2835,34.0538,25.8481"/>
        <path class="cls-20" d="M69.2548,115.2227c-1.0753-2.6661-3.0561-7.4049.2803-9.2122,4.1385-1.6283,8.8503-1.8908,13.2199-1.334,2.4803.4095,4.9363,1.0704,7.1914,2.2652,0,0-.0571.24-.0571.24-3.7627.0414-7.2835-.0727-10.9622-.2782-2.3594-.1933-4.802-.2855-7.1299.0927-.9657.2114-2.1246.3012-2.5938,1.2355-.4221.8836-.4621,2.1426-.3598,3.3182.1094,1.1946.3381,2.4033.6423,3.5862,0,0-.2312.0867-.2312.0867h0Z"/>
        <path class="cls-1" d="M132.5749,159.5558s-.5742,26.7018-5.7423,43.9287l6.3165,14.93,4.5939,14.0687,15.2171.8613,3.4454-15.5043s-2.8712-14.93-3.4454-25.5533c-.5742-10.6233-.2871-25.8404-.2871-25.8404l-20.0981-6.8908Z"/>
        <path class="cls-11" d="M89.4744,561.9819l-4.1029,32.4127s20.5143,4.9234,32.0024,0l-.4103-37.7464s-23.7966-1.2309-27.4892,5.3337Z"/>
        <path class="cls-11" d="M183.0199,564.0332c.6924,10.7439,1.7413,20.5323,3.6925,27.8995,0,0,23.3864,4.9236,33.6436.8207l-11.0777-39.7978-26.2583,11.0776Z"/>
        <path class="cls-19" d="M289.3781,109.7315s16.8956-2.1997,15.3814,7.0285c-1.7589,10.7196-22.308,20.9838-45.7366,24.549l-.4074-26.6881c10.7046-3.2236,21.046-5.1635,30.7626-4.8894Z"/>
        <path class="cls-20" d="M288.8739,116.4102c-.2792,7.4288-6.2597,14.0628-13.33,15.9253-1.0093.2656-2.0557.3967-3.0814.4863.866-.6147,1.7715-1.0405,2.6047-1.6003,5.9422-3.5687,10.5268-8.6939,13.8066-14.8113h0Z"/>
        <path class="cls-15" d="M258.1024,111.0765s17.0149-6.9476,36.9801-1.5488c0,0-24.2612,1.9591-35.3389,11.806l-1.6411-10.2572Z"/>
        <path class="cls-15" d="M246.7699,56.0084s-18.0593-23.0757-63.2074-30.6004c-45.1482-7.5247-73.742,4.5148-73.742,4.5148l-16.0527,70.7321s-35.1407-21.408-65.0158-23.2219c-20.6818-1.2557-23.274.1462-23.274.1462,0,0,63.9578,10.7919,81.1244,27.9585,1.8463,1.8463-3.0772,3.4874-5.3337,4.9234-2.2566,1.436-3.0772,4.1029-.2051,5.744,2.872,1.6411,7.3852,2.6669,6.7697,4.7183-.6154,2.0514-9.9432,6.7947-9.9432,6.7947,0,0,7.8442,2.8762,12.8123,2.8762,0,0,17.3113,17.4718,28.3127,23.9726,19.4403,11.4874,80.4065,31.1635,87.8014,30.7715s32.0024-12.3086,45.1316-28.3098c13.1292-16.0012,12.2095-58.4401-5.1781-101.0203Z"/>
        <path class="cls-8" d="M246.7699,56.0084s-35.2381,5.928-107.8784-23.3578c0,0,.2871,43.3545-27.276,59.7201,0,0-.2871,13.7816,1.7227,23.5435l-19.5704-15.259c-7.4615-4.3827-15.939-8.4552-24.7677-12.4199,0,0,7.5873-51.8522,24.8143-72.5246C111.0413-4.9616,144.3467-1.2291,169.0387,4.5132c24.692,5.7423,45.9385,18.6625,54.552,24.4049,8.6135,5.7423,21.9536,20.5881,23.1792,27.0903Z"/>
        <path class="cls-8" d="M112.4505,321.1435c-12.7189,2.4617-30.7715,9.8469-39.7978,19.6938-9.0263,9.8469-26.2584,18.0526-35.695,15.5909,0,0,10.2572,20.1041,27.4892,23.7966,0,0-6.9749,5.3337-12.7189,4.5132,0,0,12.3086,11.8983,27.4892,6.9749l.8206,17.2321s13.1292-11.0777,15.1806-15.5909c2.0514-4.5132,32.823-39.3875,32.823-39.3875l-15.5909-32.823Z"/>
        <path class="cls-8" d="M104.655,413.8683s-13.3489,130.0822-15.1806,145.6519c-.8206,6.9749-1.6411,13.2659-1.6411,13.2659l6.1543-9.9836s3.2823,15.1806,4.5132,14.36c1.2309-.8206,6.1543-9.8469,6.1543-9.8469,0,0,5.3337,9.8469,6.9749,7.3852,1.6411-2.4617,5.7441-12.7189,5.7441-12.7189-1.2641-43.2713-.3149-92.852,2.0515-146.4726l-14.7704-1.641Z"/>
        <path class="cls-8" d="M158.8129,410.586l20.5143,132.1124,3.6926,30.6348,8.2057-8.8896s4.1029,7.3852,7.3852,9.4366l3.2823-11.0777s6.5646,10.6675,7.7955,10.6675c1.2309,0,2.872-7.7955,2.872-7.7955l-38.9773-158.781-14.7703,3.6926Z"/>
        <path class="cls-4" d="M149.6498,219.3922c-1.094,4.1026-4.6499,11.4885-4.6499,11.4885l-3.0087-21.3353-19.9672-7.3853c-29.2777,12.4301-56.9262,24.6355-73.3047,35.2848,0,0,1.3677,22.4288,13.6763,49.5084l16.138-3.8297s-3.5559-18.0527-5.7441-33.9167c0,0,26.532-13.6766,43.4905-15.8646,0,0-.2735,38.0199-3.5557,57.4401-3.2824,19.4202-7.8639,35.6951-7.8639,35.6951,0,0,51.9013,8.6155,71.3216,2.3248,0,0-14.9402-62.2174-12.0593-93.502l-5.301-31.0491c-1.0106,1.394-8.1552,11.3295-9.1717,15.1411Z"/>
        <path class="cls-22" d="M86.767,217.5785c-5.8805,2.6933-11.4756,5.3473-16.6766,7.9468"/>
        <path class="cls-16" d="M149.6498,219.3922c-1.094,4.1026-4.6499,11.4885-4.6499,11.4885l-3.0087-21.3353-19.9672-7.3853c-13.0094,4.6346-41.3435,17.8581-51.7412,23.3601,4.1651,7.3003,9.694,12.6663,17.8924,16.5749,8.7528-3.6929,19.6253-7.6588,28.1046-8.7528,0,0-.0652,9.0715-.5146,20.616,15.8,3.7821,31.8803,4.005,48.2948-.0217-.4051-6.822-.4363-13.1856.0643-18.6262l-5.3028-31.0593c-1.0106,1.394-8.1552,11.3295-9.1717,15.1411Z"/>
        <path class="cls-22" d="M155.4908,202.0745s-4.7468,13.2151-5.8409,17.3177c-1.094,4.1026-4.6499,11.4885-4.6499,11.4885l-3.0087-21.3353-19.9672-7.3853c-8.2164,2.9266-22.5456,9.28-34.6083,14.9501,0,0,39.9757,24.0975,75.826,13.0313l-4.4797-26.2392c-1.4288-.8265-2.5646-1.4633-3.2712-1.8278Z"/>
        <path class="cls-22" d="M104.8602,326.4772s-14.0181,34.8744-15.1122,93.1351c0,0,34.1906,10.6675,62.9107,4.6499l.2735-3.5558s32.2759,6.2911,47.3198-6.5646c0,0-20.2408-57.1666-24.0702-85.3397,0,0-43.9007,5.744-71.3215-2.325Z"/>
        <path class="cls-2" d="M233.0749,145.5406s-29.9509,4.9234-48.8241-2.4617c0,0,1.8526,18.0979,18.8732,21.7452,5.744,1.2309,7.7955-.8206,7.7955-.8206,0,0,17.2321-5.9492,22.1555-18.4629Z"/>
        <path class="cls-5" d="M195.3887,145.9887c-3.9143-.6326-7.709-1.5679-11.138-2.9097,0,0,1.8526,18.0979,18.8732,21.7452,2.872.6154,4.8208.41,6.0517.0516-.8708-7.0793-6.2423-13.2121-13.7869-18.887Z"/>
        <path class="cls-6" d="M185.6867,148.6178c-.58-.492-1.436-5.5389-1.436-5.5389,11.7338,4.5915,31.0011,4.2702,41.439,3.4874,0,0-12.3563,12.9546-40.003,2.0514Z"/>
        <path class="cls-14" d="M215.1776,166.9761c-.048,1.7754-.9891,3.2696-2.2104,4.4317-1.1871,1.1792-2.8973,1.5149-4.4148,1.9131-1.5457.3699-3.104.5876-4.647.5283-1.5197-.0305-3.0236-.284-4.4878-.6348,0,0,.0273-.3691.0273-.3691,0,0,2.1606-.3289,2.1606-.3289,2.0414-.405,4.0643-1.0452,5.9204-1.9732,2.322-1.6439,4.5234-2.9629,7.3409-3.7681-.0001-.0002.3107.201.3107.201h0Z"/>
        <path d="M195.1241,63.2114c-2.4849-1.0259-4.4622-1.9465-6.4482-2.7295-1.9905-.7656-3.7499-1.9854-5.8306-2.5295-3.2904-.7642-6.8451-.6165-10.1685-.0068,0,0-3.5027.8378-3.5027.8378l-.2083-.4473c4.296-2.7774,9.1842-4.5794,14.4248-4.2941,2.681.1914,5.555.462,7.7614,2.1709,2.1883,1.6225,3.9663,3.8879,4.3806,6.7216l-.4087.2769h0Z"/>
        <path d="M235.2965,72.4524c-.8181-2.0828.3096-4.4148,2.0837-5.6694,1.7408-1.3003,3.873-1.0488,5.8464-.7438,3.4089.4927,6.4899,2.1956,9.2319,4.1935,0,0-.2004.4509-.2004.4509-.811-.123-1.6062-.2532-2.3862-.3955-2.5606-.3508-5.2967-.699-7.7358-.0836-.8104.3201-1.6048.7916-2.4204.9261-1.0395.2212-2.1697.4763-3.939,1.436l-.4802-.1143h0Z"/>
        <path class="cls-6" d="M177.6653,67.9669c11.7455.2791,29.192,11.1595,30.5781,36.8585,1.4331,26.5717-30.1742,34.1211-49.5665,20.8201-19.3924-13.3011-16.3381-37.1174-12.5249-42.6009s11.2192-15.5599,31.5134-15.0777Z"/>
        <ellipse cx="124.0746" cy="142.7686" rx="2.4617" ry="3.2023" transform="translate(-54.7614 81.1647) rotate(-30)"/>
        <ellipse cx="140.8831" cy="136.1671" rx="2.4617" ry="3.4621" transform="translate(-49.2088 88.6845) rotate(-30)"/>
        <ellipse cx="120.4226" cy="125.3423" rx="2.6582" ry="3.3245" transform="translate(-46.5376 77.004) rotate(-30)"/>
        <path class="cls-10" d="M221.9972,56.0982c-1.4267-9.4709-4.882-18.2425-9.9473-26.2768-1.1195-1.9051-2.4808-3.7721-3.5923-5.7256,10.5364,6.2004,17.2918,20.022,13.5396,32.0024h0Z"/>
        <path class="cls-10" d="M201.8929,51.9951c-7.2679-15.2593-19.5749-27.2735-31.3426-39.1234-1.745-1.684-3.5038-3.3634-5.1728-5.1874,15.6502,8.5291,33.8179,25.992,36.5154,44.3108h0Z"/>
        <path class="cls-10" d="M193.6874,50.354c-9.4389-12.3536-22.5189-20.9956-36.2174-27.9803-10.2262-5.4779-20.5483-10.8165-31.1847-15.4538-3.5559-1.5173-7.1316-2.9899-10.9627-3.7487,3.9351-.0687,7.8138.9857,11.5776,2.0386,11.2578,3.417,21.9415,8.4197,32.3196,13.9048,13.821,7.1963,27.3578,16.9716,34.4675,31.2395h0Z"/>
        <path class="cls-10" d="M138.2985,38.4558c-8.36,17.3957-25.7321,30.4847-44.859,33.3924-6.3995.944-12.9264.7694-19.1456-.5694,6.3611-.1985,12.5801-.8484,18.5972-2.2666,18.2864-4.3243,33.7804-16.0158,45.4075-30.5564h0Z"/>
        <path class="cls-10" d="M98.0905,89.7417c7.8791-5.3718,17.0641-10.4461,24.8862-15.8501,2.6697-1.8547,5.252-3.7968,7.9368-5.8952-5.8407,11.398-20.5254,19.5166-32.823,21.7454h0Z"/>
        <path class="cls-10" d="M100.142,99.9988c4.6953-3.8228,11.4406-8.8454,15.8025-12.8581,4.822-4.5499,8.3769-10.4007,11.4956-16.2371,3.133-5.9178,5.6464-12.167,7.4679-18.5628,1.7459-6.328,2.8117-12.9728,2.2005-19.4983,0,0,.978,1.4104.978,1.4104-17.3939-7.4463-37.5117-5.098-54.7663,1.7412,16.855-9.4226,38.2328-12.5659,56.376-4.9462,0,.0002.8718.4093.8718.4093.9416,7.427-.125,14.8967-2.1829,21.873-3.8555,12.6962-10.9117,26.665-21.1132,35.3588-5.4837,4.2203-11.2486,7.827-17.1299,11.3096h0Z"/>
        <path class="cls-6" d="M120.246,202.1602s2.0514,19.8989,4.5132,25.4378c0,0,10.6675-14.36,17.2321-18.0526,0,0-7.7955-7.18-10.052-9.0263-2.2566-1.8463-4.5132-5.5389-4.5132-5.5389l-7.18,7.18Z"/>
        <path d="M203.4034,85.2046c-4.6274-5.3547-10.3118-9.4099-16.4758-11.6621-11.4915-4.2301-27.6136-1.7426-36.5243,6.6409-4.5377,4.4126-7.0021,11.0537-7.1645,18.1375-2.3774-6.9889-.9554-15.2754,3.7734-21.1428,4.7429-6.0412,12.3202-9.2405,19.666-10.5484,14.7058-3.0911,31.0915,4.5189,36.7251,18.5749h0Z"/>
        <path d="M152.0782,76.08s-9.6948-4.2771-12.261-13.1164c0,0-1.1406,11.1205,6.2731,14.8273,0,0-9.1245,3.4217-12.5462-5.1325,0,0,.5703,10.5502,7.9839,13.1164,0,0,.8554,2.8514-1.7108,2.8514-2.5663,0-10.8353-3.1365-10.8353-3.1365,0,0,6.2731,11.1205,13.9719,9.9799,0,0,2.2811-17.3935,9.1245-19.3895Z"/>
        <path class="cls-6" d="M227.6403,97.7507c-1.4929,7.558-1.996,23.6666,7.1285,30.51,7.9807,5.9855,21.3855,4.5622,24.9747-6.9269,4.2373-13.5639-.4526-36.4144-5.0149-40.1212-4.5622-3.7068-22.5261-6.5582-27.0883,16.5381Z"/>
        <path d="M230.777,88.6262c.9769-7.113,7.9925-13.2465,15.4237-12.679,4.5014.2592,9.1104,2.1897,11.713,6.0011,2.324,3.3659,2.7615,7.508,1.6624,10.955-1.6397-6.6073-5.9475-11.2483-12.5502-11.9093-6.5489-1.067-11.8741,2.699-16.2489,7.6322h0Z"/>
        <path d="M254.7286,81.2125s6.5582.2851,11.1205-4.8474c0,0,1.4257,3.992-4.8474,8.2691,0,0,2.5663,4.8474,12.261-3.1365,0,0-.2851,8.8393-9.9799,11.9759,0,0,5.9879,4.8474,10.8353-1.4257,0,0-2.2811,9.1245-11.4056,8.5542,0,0-5.4177-18.249-7.9839-19.3895Z"/>
        <g>
          <ellipse class="cls-9" cx="244.9739" cy="104.6213" rx="16.9429" ry="19.3861"/>
          <g>
            <ellipse class="cls-9" cx="172.1958" cy="98.1075" rx="26.8738" ry="24.9314"/>
            <ellipse cx="166.8515" cy="98.2518" rx="18.4892" ry="18.9192"/>
            <ellipse class="cls-7" cx="162.5492" cy="91.6914" rx="9.2931" ry="6.7722" transform="translate(5.3779 192.323) rotate(-62.0567)"/>
            <ellipse class="cls-7" cx="165.1502" cy="107.6172" rx="2.889" ry="2.5985" transform="translate(-10.6242 196.8329) rotate(-60)"/>
            <ellipse class="cls-7" cx="176.096" cy="101.4247" rx="4.2998" ry="5.5379"/>
            <ellipse cx="243.3094" cy="104.4063" rx="13.6926" ry="14.5636"/>
            <ellipse class="cls-7" cx="239.4192" cy="99.215" rx="7.1067" ry="4.2903" transform="translate(7.5183 214.9177) rotate(-49.0251)"/>
            <ellipse class="cls-7" cx="248.2769" cy="106.2048" rx="2.8306" ry="3.4884"/>
          </g>
        </g>
        <path class="cls-4" d="M98.0564,422.0822s16.3042,4.156,29.438,3.0007c0,0,1.6411-79.8692,4.3764-94.0925l-18.0526-2.7352s-15.2147,70.3039-15.7618,93.8271Z"/>
        <path class="cls-21" d="M152.6586,424.2622c-2.735-13.0513-4.1868-26.5829-5.2124-39.8789-.5318-8.1085-.9164-16.9345-.787-25.0266,6.0273-2.5527,12.2243-4.8073,18.6723-5.9861-2.9133,1.1597-5.7439,2.4476-8.5522,3.7796-2.4544,1.2369-5.9406,2.8794-8.2908,4.2005,0,0,.7163-1.1957.7163-1.1957.6803,7.6864,1.3651,16.2282,1.9297,23.9687.8543,13.0779,1.7124,27.0434,1.5242,40.1384h0Z"/>
        <path class="cls-12" d="M104.3956,596.8433c-.9894-3.2596-.6696-6.3653-.1283-9.5976.3245-3.1772.5715-6.3591.7499-9.5576,0,0,.2464-.0144.2464-.0144.7257,4.7657,1.3379,9.6983.937,14.4998-.2945,1.5979-.7156,3.1751-1.5596,4.6958,0,0-.2454-.0259-.2454-.0259h0Z"/>
        <path class="cls-12" d="M209.5275,594.3977c-2.0851-2.7289-2.9294-5.7567-3.642-8.9864-.9015-3.0908-1.8977-6.1424-3.2233-9.0915,0,0,.2119-.1265.2119-.1265,1.9769,2.6155,3.5595,5.5406,4.8674,8.5461,1.5264,2.9925,2.5065,6.1531,2.0246,9.596,0,0-.2387.0622-.2387.0622h0Z"/>
        <path class="cls-14" d="M131.6444,161.2298c7.2961,3.1257,14.4624,6.6636,22.0117,9.139,0-.0001-.0908.3588-.0908.3588-4.3463,1.2827-8.5215.2766-12.4512-1.3141-3.8827-1.7452-7.2494-4.048-9.6309-7.8504,0,0,.1612-.3333.1612-.3333h0Z"/>
        <path class="cls-14" d="M103.5145,131.1172c-8.2528,2.7089-17.8058,1.6187-25.3631-2.6145,8.5764.9183,16.709,1.8982,25.3631,2.6145h0Z"/>
        <path class="cls-17" d="M71.6146,243.0283c1.3575,3.4424,1.8898,7.0329,1.569,10.7204-1.364-3.4411-1.8828-7.0334-1.569-10.7204h0Z"/>
        <path class="cls-6" d="M153.4415,198.4502c.4111,4.8728.2203,7.5735-.7969,10.6251,0,0,10.0661,10.317,13.5535,17.497,0,0-.0977-15.8529-12.7566-28.1221Z"/>
        <path class="cls-22" d="M161.5897,209.442l-.968,19.4756.1601,1.7641c6.2583-.8024,12.5767-4.0913,16.4883-6.2312-8.9414-8.3438-15.6804-15.0085-15.6804-15.0085Z"/>
        <g>
          <path class="cls-16" d="M177.1987,224.4307c-3.9116,2.1399-9.9133,4.9882-16.2275,6.3773l-1.3814,6.004c1.5731,1.6181,12.0799,12.111,14.0243,13.7141,10.293-2.4971,17.5912-6.6472,21.8105-9.4341-6.2274-5.3274-12.6234-11.434-18.2259-16.6613Z"/>
          <path class="cls-15" d="M387.989,249.8425c2.0515-2.4622,2.4617-5.5388-4.1029-8.2058-6.5645-2.667-24.6171-4.9237-31.7971-5.1286-7.18-.2054-18.0527-3.8978-18.0527-3.8978,0,0,5.5388-3.2827,12.5137-7.7955,6.9749-4.5129,5.1287-12.9241,3.8978-13.9495-1.2308-1.026-8.6161,4.1026-16.8217,11.2825-5.5942,4.8954-17.3349,15.4339-17.3349,15.4339-19.98,4.3623-38.5072,7.8769-54.1405,10.6041-2.3994,2.9815-5.539,8.4673-5.1432,16.305,23.7344-6.8527,58.3607-17.3153,58.3607-17.3153,0,0,13.3344,6.1545,20.1041,8.2058,6.7697,2.0513,26.6686,5.5388,37.131,4.9231,10.4622-.6151,10.6674-3.0767,10.6674-3.0767,0,0,5.1286-.6157,6.9749-3.0773,1.8463-2.4616-2.2566-4.308-2.2566-4.308Z"/>
          <path class="cls-4" d="M262.1506,248.1858c-28.7063,5.0087-47.6217,7.354-47.6217,7.354-4.8409-2.7309-11.8058-8.204-19.1044-14.4477-4.2193,2.7869-11.5176,6.937-21.8105,9.4341,15.8054,13.0301,40.6185,25.5748,40.6185,25.5748,0,0,8.4108-2.2567,26.2583-6.975,3.9401-1.0416,9.7926-2.6941,16.5166-4.6352-.3958-7.8377,2.7438-13.3235,5.1432-16.305Z"/>
          <path class="cls-14" d="M320.2916,242.0469c2.6972-.8154,5.4423-1.2272,8.2539-1.2957.9986-.0037,2.2931.0242,3.1345.6541,3.0921,2.5238,4.9674,5.5918,6.6642,9.0524-1.3893-1.2533-2.6554-2.5797-3.9132-3.893-1.1975-1.1986-2.4491-2.6727-3.7763-3.6201-.3416-.3808-1.2959-.365-2.157-.4468-2.7281-.1669-5.4456-.1347-8.2061-.4509h0Z"/>
          <path class="cls-14" d="M350.4476,238.9697c-.0748,3.9184-3.9753,7.8306-8.0005,6.9749,3.3188-1.836,5.375-4.1576,8.0005-6.9749h0Z"/>
          <path class="cls-14" d="M387.3734,250.0474c-4.2784-2.4848-9.1477-3.5891-13.9238-4.6441-4.601-.9778-9.9038-1.6515-14.5948-2.184,0,0-9.8433-.9673-9.8433-.9673,11.7712-.4297,28.6658.5947,38.3618,7.7954h0Z"/>
          <path class="cls-14" d="M383.2706,257.2276c-2.145-5.1744-32.2484-6.357-39.1822-8.8216,10.1736,1.1414,20.4844,1.3005,30.4264,4.0059,2.8434.8528,5.928,1.6523,8.1912,3.6815.2858.3089.601.6905.5646,1.1341h0Z"/>
          <path class="cls-17" d="M214.8478,259.0737c.1971,3.7388-.6023,7.2053-1.0256,10.8726-1.2933-3.5-.434-7.5449,1.0256-10.8726h0Z"/>
          <path class="cls-17" d="M212.5912,257.4326c-.1714,3.0944-1.8039,6.7445-4.9232,7.7955,2.0235-2.4503,3.0632-5.1862,4.9232-7.7955h0Z"/>
        </g>
        <path class="cls-13" d="M162.3311,224.2677c-.077,2.1103-.0137,4.1966.1151,6.275l1.0431-.3133c-.3018-2.0019-.6643-3.9948-1.1582-5.9617Z"/>
        <path class="cls-3" d="M162.4462,230.5427c.2369,3.8201.786,7.6004,1.7314,11.3674.1521-3.9092-.1057-7.8172-.6883-11.6807l-1.0431.3133Z"/>
        <path class="cls-14" d="M407.2203,126.6138c-4.6262-4.1892-7.2637-11.0936-5.7824-17.2553,1.1715,6.1091,3.2875,11.5181,5.7824,17.2553h0Z"/>
        <path class="cls-17" d="M176.1818,328.8023c-23.8073,3.1496-48.1979,3.7417-71.9683-.0114,23.9347,2.0893,48.0107,1.5089,71.9683.0114h0Z"/>
        <path class="cls-15" d="M63.2161,286.6794l15.1806-3.6926s5.1067,25.9663,13.9498,42.6698c1.8463,3.4874,4.1029,5.5389,4.1029,5.5389,0,0,19.3143-13.5875,26.4144-16.523,7.5002-1.1842,15.8451,7.7018,18.7171,15.9076,2.872,8.2057-.2051,7.3852-.8206,7.18s-14.5652-13.5395-14.5652-13.5395c0,0,11.8644,16.3534,9.4366,26.8738-.6154,2.6669-13.9498-13.1292-16.6166-18.6681,0,0,7.7162,17.2178,5.5389,28.1047-.2051,1.0257-11.2829-23.7966-11.2829-23.7966,0,0-6.3594,5.9492-11.8983,7.18-5.5389,1.2309-9.8469,1.6411-9.8469,1.6411,0,0-22.7709-34.6692-28.3098-58.8762Z"/>
        <path class="cls-14" d="M96.4493,331.1956c-1.2807,1.2567-2.5775,2.2734-3.8865,3.3765-.4468.3569-.8762.7361-1.4165,1.0886.218-1.2549.9827-2.3135,1.917-3.1069.9612-.7748,2.1145-1.3729,3.386-1.3582h0Z"/>
      </g>
    </g>
  </g>
</svg>